<svg data-v-1084b650="" xmlns="http://www.w3.org/2000/svg" viewBox="0 0 300 300"><!----> <!----> <rect data-v-1084b650="" fill="#E1F0F0" x="0" y="0" width="300px" height="300px" class="logo-background-square"></rect> <!----> <g data-v-1084b650="" id="4037bbe0-62ee-d3f2-73c0-dadd625b8408" fill="#10312F" transform="matrix(2.5,0,0,2.5,95.77935028076172,128.375)"><path d="M4.54 13.50L4.54 4.68L7.84 4.68L7.84 3.82L0.35 3.82L0.35 4.68L3.63 4.68L3.63 13.50ZM14.88 13.50L14.88 12.64L10.08 12.64L10.08 3.82L9.20 3.82L9.20 13.50ZM17.07 13.50L17.07 8.88L22.81 8.88L22.81 13.50L23.72 13.50L23.72 3.82L22.81 3.82L22.81 8.01L17.07 8.01L17.07 3.82L16.18 3.82L16.18 13.50ZM34.05 10.25L33.12 10.12C32.87 11.80 31.88 12.84 29.93 12.84C27.58 12.84 26.47 10.98 26.47 8.69C26.47 6.61 27.44 4.48 30.07 4.48C31.96 4.48 32.91 5.70 33.08 7.01L33.99 6.90C33.87 5.38 32.69 3.64 30.09 3.64C26.87 3.64 25.54 6.17 25.54 8.71C25.54 11.61 27.15 13.66 29.93 13.66C32.40 13.66 33.74 12.33 34.05 10.25ZM36.15 13.50L36.15 9.95C36.15 9.14 36.23 8.60 36.48 8.15C36.75 7.67 37.30 7.13 38.14 7.13C38.37 7.13 38.63 7.17 38.84 7.22L39.00 6.43C38.77 6.36 38.46 6.30 38.21 6.30C37.04 6.30 36.33 7.11 36.15 7.94L36.15 6.51L35.31 6.51L35.31 13.50ZM46.06 13.48L45.98 12.78C45.85 12.81 45.71 12.82 45.54 12.82C45.32 12.82 45.15 12.74 45.04 12.53C44.94 12.36 44.93 12.05 44.93 11.69L44.93 9.30C44.93 8.72 44.93 8.22 44.79 7.76C44.51 6.78 43.71 6.33 42.36 6.33C40.40 6.33 39.42 7.22 39.42 8.83L40.24 8.88C40.29 7.29 41.34 7.13 42.31 7.13C43.37 7.13 43.75 7.60 43.93 7.98C44.03 8.20 44.10 8.71 44.10 9.20L44.10 9.49L43.27 9.49C41.59 9.49 40.64 9.69 40.05 10.01C39.47 10.33 39.14 10.88 39.14 11.62C39.14 12.84 40.03 13.66 41.64 13.66C42.66 13.66 43.71 13.27 44.14 12.36C44.20 13.06 44.44 13.58 45.35 13.58C45.56 13.58 45.85 13.55 46.06 13.48ZM44.10 10.18L44.10 10.89C44.10 11.17 44.03 11.61 43.86 11.91C43.61 12.35 42.92 12.92 41.76 12.92C40.88 12.92 39.98 12.57 39.98 11.56C39.98 11.00 40.32 10.63 40.81 10.46C41.33 10.28 42.15 10.18 43.29 10.18ZM49.18 13.50C50.67 8.97 50.90 8.27 51.14 7.46C51.35 8.26 51.59 8.92 53.09 13.50L54.03 13.50L56.17 6.51L55.24 6.51C53.90 10.96 53.70 11.66 53.49 12.42C53.28 11.63 53.07 10.99 51.60 6.51L50.69 6.51C49.24 10.96 49.04 11.55 48.82 12.43C48.57 11.54 48.40 10.96 47.05 6.51L46.10 6.51L48.24 13.50ZM58.30 13.50L58.30 3.82L57.46 3.82L57.46 13.50ZM66.58 11.38L65.76 11.20C65.51 12.15 64.67 12.88 63.41 12.88C62.37 12.88 60.89 12.32 60.87 10.19L66.61 10.19C66.61 7.62 65.39 6.33 63.34 6.33C61.47 6.33 59.98 7.71 59.98 9.97C59.98 12.19 61.21 13.66 63.38 13.66C65.09 13.66 66.25 12.71 66.58 11.38ZM60.87 9.51C61.01 7.91 62.08 7.11 63.32 7.11C64.99 7.11 65.62 8.19 65.72 9.51ZM69.08 13.50L69.08 9.95C69.08 9.14 69.16 8.60 69.41 8.15C69.68 7.67 70.22 7.13 71.06 7.13C71.30 7.13 71.55 7.17 71.76 7.22L71.93 6.43C71.69 6.36 71.39 6.30 71.13 6.30C69.97 6.30 69.26 7.11 69.08 7.94L69.08 6.51L68.24 6.51L68.24 13.50Z"></path></g> <linearGradient data-v-1084b650="" gradientTransform="rotate(25)" id="3f15ce3c-507e-3e64-a763-cdd6555fe37a" x1="0%" y1="0%" x2="100%" y2="0%"><stop data-v-1084b650="" offset="0%" style="stop-color: rgb(1, 100, 139); stop-opacity: 1;"></stop> <stop data-v-1084b650="" offset="100%" style="stop-color: rgb(91, 208, 164); stop-opacity: 1;"></stop></linearGradient> <g data-v-1084b650="" id="55c72ade-9f3f-753d-87ab-194b220b38ff" fill="url(#3f15ce3c-507e-3e64-a763-cdd6555fe37a)" stroke="none" transform="matrix(0.1544187068939209,0,0,0.1544187068939209,39.96302032470703,126.83708190917969)"><svg xmlns="http://www.w3.org/2000/svg" viewBox="0 0 96 96"><path d="M69.752 35.832c0 1.266-1.003 2.292-2.24 2.292s-2.24-1.026-2.24-2.292c0-1.266 1.003-2.292 2.24-2.292s2.24 1.026 2.24 2.292z"></path><path d="M94.368 31.056a2.016 2.016 0 0 0-1.092-1.156 2.003 2.003 0 0 0-1.592.012l-1.476.66c-2.572 1.164-4.788 2.164-6.172 2.164-.532 0-.932-.124-1.408-.748-.144-.18-.22-.364-.164-.7.18-1.108 1.664-3.78 9.572-9.212a2.004 2.004 0 0 0 .712-2.436C88.972 10.8 83.544 7.3 78.052 9.912c-5.56 2.64-10.132 7.7-14.532 12.68-2.648-1.28-5.936-1.568-10.352-1.568-.516.108-1.052.216-1.424.596-.384.38-.588.892-.58 1.424.024 2.316.06 4.876 1.284 8.856-4.584-1.448-10.02-2.724-15.776-2.724-19.84 0-36.604 11.612-36.604 25.356v7.92c0 6.86 5.248 10.924 11.264 12.068.008.248.06.5.168.74.456 1.008.908 1.876 1.324 2.68 1.256 2.428 2.088 4.04 2.088 7.608 0 .52.208.98.532 1.332h2.936c2.06.12 8.496 0 10.556 0h2.936c.324-.352.532-.816.532-1.332 0-3.684.808-5.22 2.036-7.536.432-.824.904-1.708 1.38-2.76.056-.116.056-.248.084-.368h5.14c.028.12.028.252.084.368a45.323 45.323 0 0 0 1.424 2.812c1.196 2.228 1.988 3.688 1.988 7.484 0 .516.208.976.532 1.328h12.192c.328-.352.532-.812.532-1.328 0-3.736.804-5.24 2.008-7.508.44-.836.916-1.724 1.404-2.788.084-.184.104-.384.132-.564 6.132-1.604 16.188-13.46 17.924-22.756 7.756-.916 12.532-3.148 14.952-6.968 2.236-3.5 2.28-8.052.152-13.908zM67.512 42.132c-3.432 0-6.24-2.824-6.24-6.292s2.796-6.292 6.24-6.292 6.24 2.824 6.24 6.292c0 3.464-2.8 6.292-6.24 6.292z"></path></svg></g></svg>