<svg id="圖層_1" data-name="圖層 1" xmlns="http://www.w3.org/2000/svg" xmlns:xlink="http://www.w3.org/1999/xlink" viewBox="0 0 209.69 170.47"><defs><style>.cls-1{fill:url(#未命名漸層);}.cls-2{fill:url(#未命名漸層_2);}</style><linearGradient id="未命名漸層" x1="-278.9" y1="-95.62" x2="-277.9" y2="-95.62" gradientTransform="matrix(6.22, 2.97, -2.9, 6.36, 1643.58, 1556.22)" gradientUnits="userSpaceOnUse"><stop offset="0" stop-color="#01648b"/><stop offset="1" stop-color="#5bd0a4"/></linearGradient><linearGradient id="未命名漸層_2" x1="-317.25" y1="-108.81" x2="-316.25" y2="-108.81" gradientTransform="matrix(133.03, 50.39, -62.04, 108.06, 35479.04, 27846.1)" xlink:href="#未命名漸層"/></defs><title>icon-nonbg</title><g id="_2bf82900-d323-bec8-a4a1-a4bb55c50bcd" data-name="2bf82900-d323-bec8-a4a1-a4bb55c50bcd"><path class="cls-1" d="M197.6,123.4a4.9,4.9,0,1,1-4.9-5A4.95,4.95,0,0,1,197.6,123.4Z" transform="translate(-45.14 -64.84)"/><path class="cls-2" d="M251.43,112.9a4.43,4.43,0,0,0-2.38-2.52,4.35,4.35,0,0,0-3.5,0l-3.22,1.47c-5.6,2.52-10.5,4.76-13.51,4.76a3.44,3.44,0,0,1-3.08-1.61,1.78,1.78,0,0,1-.35-1.54c.42-2.45,3.64-8.26,20.93-20.16A4.31,4.31,0,0,0,247.86,88c-8.26-19.32-20.09-27-32.13-21.28S193.54,83.57,184,94.42c-5.81-2.8-13-3.43-22.68-3.43a5.36,5.36,0,0,0-3.08,1.33,4.39,4.39,0,0,0-1.26,3.15,61.82,61.82,0,0,0,2.8,19.39c-10-3.15-21.91-6-34.51-6-43.4,0-80.08,25.41-80.08,55.44v17.36c0,15,11.48,23.87,24.64,26.39a4.15,4.15,0,0,0,.35,1.61c1,2.24,2,4.13,2.87,5.88,2.73,5.32,4.55,8.82,4.55,16.66a4.13,4.13,0,0,0,1.19,2.94h6.44c4.48.28,18.55,0,23.1,0h6.44a4.44,4.44,0,0,0,1.19-2.94c0-8.05,1.75-11.41,4.48-16.52.91-1.82,2-3.71,3-6a4.3,4.3,0,0,0,.21-.77h11.27a2.48,2.48,0,0,0,.21.77c1,2.1,2,4.13,3.08,6.16,2.59,4.9,4.34,8,4.34,16.38a4,4,0,0,0,1.19,2.87h26.6a4.27,4.27,0,0,0,1.19-2.87c0-8.19,1.75-11.48,4.41-16.45,1-1.82,2-3.78,3.08-6.09a4.09,4.09,0,0,0,.28-1.26c13.44-3.5,35.42-29.47,39.2-49.77,16.94-2,27.44-6.86,32.69-15.26,4.83-7.7,4.9-17.71.28-30.52ZM192.7,137.19a13.79,13.79,0,1,1,13.65-13.79A13.74,13.74,0,0,1,192.7,137.19Z" transform="translate(-45.14 -64.84)"/></g></svg>